<svg width="655" height="191" viewBox="0 0 655 191" fill="none" xmlns="http://www.w3.org/2000/svg">
<path d="M170.856 172.036C170.856 175.982 169.691 179.3 167.449 182.08C162.786 187.729 153.191 190.778 136.96 190.778H133.014C125.481 190.778 119.473 190.42 114.9 189.433C105.933 187.64 102.077 184.142 102.077 178.852C102.077 172.037 107.009 168.45 120.101 167.373C108.085 167.284 101.808 165.67 101.808 157.958C101.808 151.95 106.56 147.376 119.742 146.928C109.789 145.493 104.318 141.727 104.318 132.849C104.318 121.909 114.183 114.825 135.166 114.825H137.229C140.726 114.825 143.416 114.645 145.568 114.018C149.783 113.031 151.487 110.251 151.487 103.974V103.257H168.345V103.885C168.345 110.341 167.269 113.569 163.862 115.094C160.634 116.529 154.805 116.618 145.568 116.618C161.351 117.605 167.718 122.626 167.718 132.849C167.718 144.596 157.764 149.618 137.587 149.618H131.49C126.558 149.618 122.971 149.708 120.549 149.977C115.886 150.425 114.81 151.501 114.81 153.295C114.81 154.012 115.259 154.729 116.245 155.088C118.128 155.895 122.702 156.164 130.862 156.164H144.851C163.144 156.164 170.856 160.02 170.856 171.588V172.036ZM135.973 139.754C147.9 139.754 153.101 137.602 153.101 132.67C153.101 127.289 148.617 125.227 136.87 125.227H135.077C123.509 125.227 119.473 127.469 119.473 133.028C119.473 138.409 124.316 139.754 135.973 139.754ZM138.753 178.941C143.596 178.941 147.182 178.762 149.693 178.134C154.984 177.058 156.688 175.175 156.688 172.754V172.306C156.688 171.229 156.419 170.333 155.791 169.615C154.625 168.181 151.218 167.373 143.057 167.373H130.952C122.164 167.373 117.68 168.808 117.68 173.292V173.382C117.68 177.865 123.24 178.941 135.525 178.941H138.753Z" fill="#EFF88B"/>
<path d="M86.2491 108.009C79.2546 108.009 76.385 105.767 76.385 98.7729C76.385 92.0473 79.972 89.7158 86.2491 89.7158C92.6159 89.7158 96.1132 92.0473 96.1132 98.7729C96.1132 105.229 92.885 108.009 86.2491 108.009ZM78.0888 167.373V115.901H93.7817V167.373H78.0888Z" fill="#EFF88B"/>
<path d="M0 167.373V103.436H35.4211C56.6737 103.436 66.9862 107.382 66.9862 120.205V120.743C66.9862 128.993 62.9509 132.67 53.8042 134.373C64.1166 135.808 68.6003 139.395 68.6003 148.452V148.811C68.6003 153.474 67.3449 157.24 64.834 159.841C59.8123 165.221 50.2172 167.373 36.0488 167.373H0ZM14.6168 115.273V128.724H36.8559C39.9944 128.724 42.5053 128.634 44.9265 128.365C49.4998 127.738 52.19 126.123 52.19 122.267V121.909C52.19 119.846 51.652 118.412 50.5759 117.425C48.4237 115.632 44.0297 115.273 36.3178 115.273H14.6168ZM14.6168 140.382V154.819H34.1656C39.4564 154.819 43.3124 154.64 46.0922 154.191C51.652 153.474 53.2661 151.591 53.2661 147.824V147.466C53.2661 145.403 52.7281 143.879 51.652 142.892C49.5895 140.83 44.6575 140.382 35.2417 140.382H14.6168Z" fill="#EFF88B"/>
<path d="M513.666 167.373H498.959V99.2212H513.666V126.392C517.522 118.86 524.965 114.017 535.994 114.017C541.375 114.017 545.948 115.004 549.715 117.156C557.247 121.281 561.282 128.903 561.282 139.216V167.373H545.948V143.699C545.948 140.202 545.41 137.153 544.603 134.553C542.72 129.262 538.505 126.213 530.973 126.213C519.046 126.213 513.666 132.311 513.666 144.417V167.373Z" fill="#EFF88B"/>
<path d="M460.42 169.077C439.258 169.077 428.317 163.069 425.717 150.335H443.203C444.907 155.357 449.301 157.419 461.228 157.419C472.437 157.419 475.665 155.177 475.665 151.59C475.665 149.887 474.948 148.9 472.347 148.272C469.747 147.555 464.635 147.196 456.026 146.927C435.581 146.3 427.6 142.085 427.6 131.862C427.6 128.365 428.586 125.316 430.739 122.715C434.953 117.335 443.293 114.017 456.385 114.017C475.755 114.017 486.246 119.487 490.013 131.952H473.513C472.078 126.661 465.801 125.047 456.206 125.047C452.44 125.047 449.66 125.226 447.597 125.854C443.652 126.93 442.306 128.724 442.306 130.607C442.306 132.131 442.755 133.207 445.266 134.014C447.777 134.732 452.619 135.18 461.228 135.539C472.975 135.987 480.418 137.243 484.722 139.753C489.206 142.175 490.73 145.851 490.73 151.232C490.73 161.544 480.507 169.077 460.42 169.077Z" fill="#EFF88B"/>
<path d="M405.147 155.177C400.933 163.338 391.427 169.077 376.542 169.077C362.373 169.077 354.572 164.324 354.572 154.46V154.37C354.572 148.362 357.082 143.879 362.732 141.278C364.436 140.471 366.319 139.843 368.381 139.216C372.596 138.139 378.694 137.422 389.724 136.794C393.58 136.525 396.539 136.346 398.601 135.987C402.816 135.36 404.251 134.194 404.251 131.952V131.862C404.251 130.697 403.892 129.62 402.906 128.544C401.202 126.482 397.166 125.047 389.724 125.047C385.24 125.047 381.832 125.316 379.321 126.034C374.12 127.199 371.968 129.71 371.52 133.835H355.827C357.531 120.115 368.561 114.107 388.378 114.107C395.104 114.107 400.574 114.735 405.147 115.9C414.204 118.411 418.868 124.15 418.868 135.36V167.373H406.493L405.147 155.177ZM381.115 158.316C385.688 158.316 389.634 157.509 393.131 155.985C400.215 152.936 404.43 147.914 404.43 142.713V142.354C403.085 144.148 399.498 145.403 391.069 145.851C381.205 146.3 376.721 147.017 373.941 148.362C371.789 149.438 370.713 150.963 370.713 153.025V153.115C370.713 156.523 373.582 158.316 381.115 158.316Z" fill="#EFF88B"/>
<path d="M330.821 167.373V99.2212H346.155V167.373H330.821Z" fill="#EFF88B"/>
<path d="M291.427 168.898C279.859 168.898 272.506 165.759 268.291 159.661V185.846H253.406V115.901H266.498L267.574 125.316C272.416 117.873 281.025 114.197 291.875 114.197C309.9 114.197 320.93 123.702 320.93 141.996C320.93 151.142 317.612 157.688 311.962 162.262C306.403 166.746 299.229 168.898 291.427 168.898ZM286.674 156.612C300.394 156.612 305.416 151.501 305.416 141.996C305.416 131.683 299.946 126.303 286.854 126.303C274.838 126.303 268.022 131.862 268.022 141.996C268.022 151.77 273.941 156.612 286.674 156.612Z" fill="#EFF88B"/>
<path d="M211.899 169.256C203.469 169.256 196.654 168.449 191.274 166.656C180.602 163.159 175.222 156.074 172.98 144.686H189.301C191.453 153.563 199.434 156.164 212.257 156.164C224.005 156.164 229.295 153.922 229.295 148.631C229.295 146.569 228.578 145.044 227.233 144.237C224.363 142.354 217.817 141.906 204.725 141.188C198.268 140.83 192.888 140.023 188.583 138.678C180.064 136.167 176.029 131.055 176.029 122.088C176.029 109.713 186.521 101.822 207.415 101.822C229.654 101.822 241.491 108.009 244.45 124.151H228.399C226.605 115.99 219.252 114.376 207.146 114.376C195.13 114.376 191.274 117.066 191.274 121.64C191.274 123.881 191.901 125.406 194.771 126.482C197.551 127.558 202.752 128.275 211.719 128.634C219.431 128.993 225.619 129.8 230.461 131.145C240.235 133.746 244.45 138.767 244.45 147.555C244.45 161.275 234.407 169.256 211.899 169.256Z" fill="#EFF88B"/>
<path d="M596.507 128.281C596.495 125.291 596.482 122.339 596.47 119.387C596.46 116.918 596.44 114.449 596.443 111.981C596.447 109.234 596.609 106.497 597.005 103.781C597.313 101.668 597.766 99.5853 598.416 97.5527C598.936 95.9237 599.611 94.3528 600.615 92.9626C601.99 91.0565 603.818 89.9149 606.269 89.9651C607.561 89.9916 608.821 90.2187 610.036 90.6629C611.094 91.05 612.171 91.4099 613.18 91.9054C614.568 92.5879 615.916 93.3592 617.252 94.1421C619.356 95.3747 621.438 96.6453 623.525 97.9066C624.456 98.4687 625.455 98.6651 626.52 98.525C627.307 98.4214 627.953 98.0119 628.521 97.503C629.298 96.8074 629.684 95.8976 629.79 94.8669C629.941 93.4032 629.381 92.2238 628.24 91.3238C627.655 90.8622 627.016 90.4635 626.377 90.0757C622.73 87.8608 619.066 85.6724 615.428 83.4407C614.467 82.851 613.57 82.1539 612.662 81.4807C611.937 80.943 611.24 80.3681 610.533 79.8068C610.403 79.7041 610.285 79.5879 610.074 79.4007C610.546 79.3272 610.895 79.2654 611.246 79.2196C612.397 79.0694 613.548 78.9055 614.703 78.7832C616.323 78.6117 617.945 78.4467 619.57 78.3252C623.634 78.0211 627.707 77.977 631.785 78.0701C633.761 78.1153 635.738 78.136 637.714 78.1675C638.852 78.1856 639.859 77.8573 640.723 77.108C642.24 75.792 642.792 73.4727 641.58 71.6861C640.905 70.6914 639.964 70.0573 638.737 69.9839C637.7 69.9218 636.659 69.9209 635.619 69.9113C633.035 69.8872 630.451 69.8988 627.867 69.8483C625.563 69.8033 623.257 69.7334 620.956 69.6026C618.722 69.4757 616.52 69.0828 614.36 68.4803C613.007 68.1028 611.671 67.6656 610.416 67.0188C609.721 66.661 609.002 66.3375 608.348 65.916C606.677 64.8402 605.5 63.3907 605.086 61.4068C604.855 60.3009 604.904 59.1918 605.205 58.1289C605.509 57.059 605.89 55.9985 606.366 54.9952C606.963 53.7363 607.653 52.5174 608.368 51.3202C611.34 46.3447 614.333 41.3815 617.327 36.4195C617.943 35.399 618.192 34.3315 617.872 33.1574C617.499 31.7886 616.573 30.9024 615.335 30.2896C613.768 29.5146 611.64 29.7517 610.211 31.3108C610.05 31.4868 609.93 31.7032 609.805 31.9095C607.913 35.0384 606.018 38.1659 604.133 41.2992C602.026 44.8021 599.928 48.3106 597.824 51.8155C597.766 51.9124 597.685 51.9959 597.545 52.1745C597.485 51.9453 597.437 51.8103 597.416 51.6714C597.077 49.4118 596.847 47.1446 596.763 44.8608C596.609 40.6479 596.636 36.4359 596.638 32.2234C596.639 30.6697 596.619 29.1158 596.608 27.562C596.598 26.0122 595.625 24.402 594.014 23.75C592.244 23.0335 590.674 23.3256 589.29 24.5494C588.433 25.3076 587.957 26.3043 587.935 27.466C587.912 28.6566 587.942 29.8487 587.949 31.0402C587.975 34.9945 588.054 38.95 588.008 42.9029C587.974 45.8372 587.596 48.7437 586.846 51.5848C586.512 52.8482 586.098 54.0933 585.519 55.2631C585.077 56.1568 584.589 57.0512 583.976 57.8314C582.889 59.2143 581.508 60.2198 579.705 60.535C578.505 60.7449 577.312 60.6576 576.159 60.2998C575.068 59.9615 573.985 59.5723 572.947 59.0997C571.888 58.6182 570.867 58.0439 569.867 57.4475C565.094 54.6014 560.336 51.7314 555.569 48.8765C554.842 48.4415 554.055 48.1721 553.198 48.1773C552.257 48.1829 551.436 48.5182 550.733 49.1231C549.684 50.0258 549.023 51.1405 548.978 52.5557C548.927 54.1467 549.621 55.382 550.971 56.1984C556.949 59.812 562.943 63.3993 568.93 66.9961C569.163 67.1361 569.396 67.2763 569.607 67.5165C569.28 67.5794 568.956 67.6564 568.626 67.7028C566.636 67.9833 564.644 68.2671 562.631 68.3388C560.309 68.4214 557.987 68.4781 555.664 68.5085C553.687 68.5344 551.71 68.5133 549.733 68.5019C547.167 68.4871 544.6 68.4742 542.034 68.4368C539.087 68.3937 536.141 68.3161 533.194 68.2696C530.87 68.233 528.547 68.2145 526.223 68.2004C525.159 68.1939 524.281 68.663 523.524 69.3526C522.444 70.3372 522.028 71.5888 522.165 73.0358C522.284 74.2866 522.876 75.2382 523.945 75.9335C524.667 76.4037 525.449 76.5361 526.274 76.552C529.03 76.605 531.785 76.6644 534.541 76.708C539.273 76.7828 544.006 76.8454 548.739 76.9172C551.132 76.9535 553.527 76.9471 555.918 77.0538C558.462 77.1675 560.988 77.4856 563.481 78.0555C565.037 78.4112 566.559 78.8809 568.056 79.4259C569.297 79.8775 570.509 80.4099 571.647 81.084C573.282 82.0521 574.493 83.367 574.855 85.2896C575.035 86.2472 574.986 87.212 574.812 88.1718C574.633 89.1579 574.338 90.1011 573.945 91.0214C573.08 93.0427 571.9 94.8875 570.782 96.7673C569.451 99.0056 568.09 101.227 566.789 103.483C565.891 105.041 566.059 106.611 567.092 108.061C568.216 109.636 570.268 110.304 572.029 109.784C572.962 109.508 573.7 108.962 574.2 108.136C576.263 104.727 578.297 101.3 580.38 97.9038C581.045 96.8197 581.817 95.7994 582.569 94.7706C583.074 94.0781 583.618 93.4114 584.169 92.7536C584.463 92.4026 584.809 92.095 585.187 91.7118C585.371 92.3482 585.549 92.917 585.7 93.4924C586.368 96.0261 586.823 98.5976 587.163 101.191C587.53 103.989 587.753 106.798 587.851 109.612C587.962 112.806 588.023 116.002 588.08 119.197C588.155 123.358 588.2 127.52 588.266 131.682C588.301 133.857 588.358 136.033 588.394 138.208C588.412 139.336 588.717 140.362 589.483 141.216C590.811 142.695 592.975 143.188 594.787 142.13C596 141.421 596.562 140.238 596.585 138.833C596.605 137.677 596.582 136.52 596.573 135.363C596.553 133.015 596.529 130.667 596.507 128.281Z" fill="#EFF88B"/>
</svg>
